<?xml version="1.0" encoding="iso-8859-1"?>
<!-- Generator: Adobe Illustrator 19.0.0, SVG Export Plug-In . SVG Version: 6.00 Build 0)  -->
<svg version="1.1" id="Capa_1" xmlns="http://www.w3.org/2000/svg" xmlns:xlink="http://www.w3.org/1999/xlink" x="0px" y="0px"
	 viewBox="0 0 512 512" style="enable-background:new 0 0 512 512;" xml:space="preserve">
<g>
	<g>
		<path d="M379.882,420.996c-3.061-4.595-9.271-5.837-13.866-2.773l-0.37,0.248c-4.576,3.093-5.778,9.31-2.685,13.885
			c1.933,2.859,5.084,4.401,8.294,4.401c1.927,0,3.875-0.556,5.591-1.716l0.263-0.178
			C381.705,431.8,382.946,425.591,379.882,420.996z"/>
	</g>
</g>
<g>
	<g>
		<path d="M149.038,79.632c-3.093-4.575-9.309-5.779-13.885-2.686l-0.297,0.201c-4.582,3.084-5.797,9.298-2.714,13.88
			c1.93,2.87,5.088,4.419,8.305,4.419c1.92,0,3.861-0.552,5.574-1.704l0.332-0.225C150.929,90.424,152.131,84.207,149.038,79.632z"
			/>
	</g>
</g>
<g>
	<g>
		<path d="M512,256c0-68.38-26.628-132.667-74.98-181.02C388.668,26.629,324.38,0,256,0c-54.252,0-106.159,16.816-150.108,48.628
			c-4.474,3.238-5.475,9.49-2.237,13.964c3.239,4.475,9.491,5.475,13.964,2.237C158.135,35.502,205.986,20,256,20
			c130.131,0,236,105.869,236,236c0,59.692-22.024,115.993-62.209,159.65l-14.164-14.165c24.595-26.977,41.973-59.748,50.474-95.37
			c13.391-56.121,4.127-114.097-26.087-163.249c-30.214-49.152-77.76-83.596-133.88-96.988
			c-48.84-11.654-100.542-5.854-145.584,16.334c-4.955,2.44-6.992,8.435-4.552,13.39c2.441,4.954,8.436,6.993,13.39,4.552
			c40.873-20.134,87.789-25.396,132.104-14.822c105.122,25.084,170.238,131.017,145.154,236.14
			c-7.641,32.021-23.206,61.491-45.194,85.838l-53.389-53.389c1.24-0.721,2.483-1.435,3.709-2.185
			c27.997-17.155,51.388-41.662,67.645-70.872c2.686-4.826,0.951-10.915-3.875-13.602c-4.828-2.684-10.915-0.949-13.601,3.875
			c-16.396,29.459-40.465,52.819-68.661,68.002l-19.643-19.643c9.161-12.109,14.606-27.177,14.606-43.496
			c0-39.836-32.409-72.245-72.244-72.245c-16.319,0-31.387,5.445-43.496,14.607l-14.407-14.407
			c18.313-7.011,37.884-10.762,57.903-10.762c38.671,0,76.448,13.984,106.374,39.378c4.212,3.574,10.522,3.057,14.095-1.155
			c3.573-4.211,3.056-10.521-1.155-14.095c-33.536-28.456-75.909-44.128-119.314-44.128c-25.295,0-50.236,5.26-73.314,15.352
			L51.639,37.496c-3.904-3.903-10.236-3.903-14.142,0c-3.905,3.905-3.905,10.237,0,14.143L68.059,82.2
			c-20.593,22.244-36.921,47.704-48.572,75.833C6.556,189.25,0,222.211,0,256c0,68.38,26.629,132.667,74.981,181.02
			C123.333,485.371,187.62,512,256,512c54.253,0,106.16-16.815,150.108-48.628c4.474-3.238,5.475-9.49,2.237-13.964
			c-3.24-4.475-9.49-5.475-13.964-2.237C353.866,476.498,306.015,492,256,492C125.869,492,20,386.131,20,256
			c0-59.693,22.024-115.993,62.209-159.649l14.159,14.158c-24.592,26.976-41.969,59.746-50.469,95.365
			c-13.392,56.12-4.127,114.096,26.086,163.248c30.213,49.152,77.759,83.597,133.879,96.987c16.475,3.932,33.275,5.877,50.037,5.877
			c32.926,0,65.7-7.507,95.547-22.21c4.955-2.44,6.992-8.435,4.552-13.39s-8.435-6.993-13.39-4.552
			c-40.871,20.134-87.786,25.396-132.104,14.821c-50.923-12.151-94.067-43.406-121.483-88.008
			c-27.416-44.601-35.822-97.209-23.67-148.132c7.641-32.02,23.205-61.486,45.189-85.833l53.395,53.395
			c-1.24,0.721-2.483,1.436-3.709,2.186c-27.997,17.155-51.388,41.663-67.644,70.872c-1.683,3.023-1.683,6.703,0,9.727
			c16.256,29.209,39.647,53.717,67.644,70.872c28.905,17.711,62.023,27.072,95.772,27.072c25.296,0,50.236-5.26,73.315-15.352
			l93.557,93.558c0.002,0.002,0.003,0.004,0.005,0.006s0.004,0.004,0.006,0.006l37.479,37.479c1.953,1.952,4.512,2.929,7.071,2.929
			s5.118-0.977,7.071-2.929c3.905-3.905,3.905-10.237,0-14.143l-30.562-30.563c20.593-22.244,36.92-47.703,48.572-75.832
			C505.444,322.75,512,289.789,512,256z M256,203.755c28.808,0,52.244,23.438,52.244,52.245c0,10.797-3.292,20.839-8.926,29.176
			l-72.495-72.495C235.161,207.048,245.203,203.755,256,203.755z M212.682,226.823l72.495,72.495
			c-8.337,5.633-18.379,8.926-29.176,8.926c-28.808,0-52.244-23.436-52.244-52.244C203.756,245.203,207.048,235.16,212.682,226.823z
			 M256,338.808c-58.106,0-112.449-31.588-143.132-82.808c16.277-27.172,39.213-48.816,65.837-63.153l19.657,19.657
			c-9.161,12.108-14.606,27.177-14.606,43.496c0,39.836,32.409,72.244,72.244,72.244c16.319,0,31.388-5.445,43.497-14.607
			l14.394,14.395C295.58,335.041,276.017,338.808,256,338.808z"/>
	</g>
</g>
<g>
	<g>
		<path d="M398.195,220.342l-0.243-0.302c-3.466-4.3-9.761-4.98-14.061-1.512c-4.301,3.465-4.978,9.761-1.512,14.061l0.243,0.302
			c1.977,2.453,4.872,3.726,7.793,3.726c2.202,0,4.42-0.724,6.268-2.214C400.984,230.938,401.661,224.642,398.195,220.342z"/>
	</g>
</g>
<g>
</g>
<g>
</g>
<g>
</g>
<g>
</g>
<g>
</g>
<g>
</g>
<g>
</g>
<g>
</g>
<g>
</g>
<g>
</g>
<g>
</g>
<g>
</g>
<g>
</g>
<g>
</g>
<g>
</g>
</svg>
